<svg xmlns="http://www.w3.org/2000/svg" width="50.453" height="50.452" viewBox="0 0 50.453 50.452">
  <g id="Group_162470" data-name="Group 162470" transform="translate(-1566.983 -8458.672)">
    <path id="Path_657" data-name="Path 657" d="M243.92,602.011,226.6,586.2v8.22l12.589,11.594a24.556,24.556,0,0,0,4.728-4.005" transform="translate(1366.36 7898.729)" fill="#f8d84d"/>
    <path id="Path_658" data-name="Path 658" d="M213.884,606.016l12.592-11.593V586.2l-17.318,15.808a24.639,24.639,0,0,0,4.726,4.005" transform="translate(1364.981 7898.729)" fill="#f8d84d"/>
    <path id="Path_659" data-name="Path 659" d="M239.332,574.921l-13.071-12.04h-.011v8.275l8.561,8.058Z" transform="translate(1366.332 7896.886)" fill="#f8d84d"/>
    <path id="Path_660" data-name="Path 660" d="M231.283,590.473l8.561-7.783V574.6l-12.778,11.879Z" transform="translate(1366.396 7897.812)" fill="#f8d84d"/>
    <path id="Path_661" data-name="Path 661" d="M225.681,586.476,212.9,574.6v8.093l8.565,7.783Z" transform="translate(1365.277 7897.812)" fill="#f8d84d"/>
    <path id="Path_662" data-name="Path 662" d="M226.508,562.881l-13.069,12.04,4.521,4.293,8.559-8.057v-8.276Z" transform="translate(1365.32 7896.886)" fill="#f8d84d"/>
    <path id="Path_663" data-name="Path 663" d="M227.753,612.318a25.226,25.226,0,1,1,25.227-25.227,25.255,25.255,0,0,1-25.227,25.227m0-49.262a24.036,24.036,0,1,0,24.035,24.035,24.063,24.063,0,0,0-24.035-24.035" transform="translate(1364.457 7896.806)" fill="#f8d84d"/>
  </g>
</svg>
