<svg xmlns="http://www.w3.org/2000/svg" width="19.527" height="19.561" viewBox="0 0 19.527 19.561">
  <path id="Icon_feather-phone-call" data-name="Icon feather-phone-call" d="M14.284,4.937a4.3,4.3,0,0,1,3.394,3.394M14.284,1.5a7.733,7.733,0,0,1,6.831,6.822m-.859,6.856v2.578a1.718,1.718,0,0,1-1.873,1.718,17,17,0,0,1-7.415-2.638,16.754,16.754,0,0,1-5.155-5.155A17,17,0,0,1,3.175,4.232a1.718,1.718,0,0,1,1.71-1.873H7.462A1.718,1.718,0,0,1,9.181,3.837a11.032,11.032,0,0,0,.6,2.414A1.718,1.718,0,0,1,9.4,8.064L8.3,9.155a13.747,13.747,0,0,0,5.155,5.155l1.091-1.091a1.718,1.718,0,0,1,1.813-.387,11.032,11.032,0,0,0,2.414.6A1.718,1.718,0,0,1,20.255,15.178Z" transform="translate(-2.417 -0.672)" fill="none" stroke="#000" stroke-linecap="round" stroke-linejoin="round" stroke-width="1.5"/>
</svg>
