<svg xmlns="http://www.w3.org/2000/svg" width="50.453" height="50.452" viewBox="0 0 50.453 50.452">
  <g id="Group_162342" data-name="Group 162342" transform="translate(-1195.797 -7898.923)">
    <path id="Path_653" data-name="Path 653" d="M243.92,602.011,226.6,586.2v8.22l12.589,11.594a24.556,24.556,0,0,0,4.728-4.005" transform="translate(995.175 7338.98)" fill="#f8d84d"/>
    <path id="Path_654" data-name="Path 654" d="M213.884,606.016l12.592-11.593V586.2l-17.318,15.808a24.639,24.639,0,0,0,4.726,4.005" transform="translate(993.796 7338.98)" fill="#f8d84d"/>
    <path id="Path_651" data-name="Path 651" d="M239.332,574.921l-13.071-12.04h-.011v8.275l8.561,8.058Z" transform="translate(995.146 7337.137)" fill="#f8d84d"/>
    <path id="Path_652" data-name="Path 652" d="M231.283,590.473l8.561-7.783V574.6l-12.778,11.879Z" transform="translate(995.211 7338.063)" fill="#f8d84d"/>
    <path id="Path_655" data-name="Path 655" d="M225.681,586.476,212.9,574.6v8.093l8.565,7.783Z" transform="translate(994.092 7338.063)" fill="#f8d84d"/>
    <path id="Path_656" data-name="Path 656" d="M226.508,562.881l-13.069,12.04,4.521,4.293,8.559-8.057v-8.276Z" transform="translate(994.135 7337.137)" fill="#f8d84d"/>
    <path id="Path_650" data-name="Path 650" d="M227.753,612.318a25.226,25.226,0,1,1,25.227-25.227,25.255,25.255,0,0,1-25.227,25.227m0-49.262a24.036,24.036,0,1,0,24.035,24.035,24.063,24.063,0,0,0-24.035-24.035" transform="translate(993.271 7337.057)" fill="#f8d84d"/>
  </g>
</svg>
